HIERARCHY
ROOT hip
{
  OFFSET 0 0 0
  CHANNELS 6 Xposition Yposition Zposition Zrotation Yrotation Xrotation
  JOINT abdomen
  {
    OFFSET 0 20.6881 -0.73152
    CHANNELS 3 Zrotation Xrotation Yrotation
    JOINT chest
    {
      OFFSET 0 11.7043 -0.48768
      CHANNELS 3 Zrotation Xrotation Yrotation
      JOINT neck
      {
        OFFSET 0 22.1894 -2.19456
        CHANNELS 3 Zrotation Xrotation Yrotation
        JOINT head
        {
          OFFSET -0.24384 7.07133 1.2192
          CHANNELS 3 Zrotation Xrotation Yrotation
          JOINT leftEye
          {
            OFFSET 4.14528 8.04674 8.04672
            CHANNELS 3 Zrotation Xrotation Yrotation
            End Site
            {
              OFFSET 1 0 0
            }
          }
          JOINT rightEye
          {
            OFFSET -3.6576 8.04674 8.04672
            CHANNELS 3 Zrotation Xrotation Yrotation
            End Site
            {
              OFFSET 1 0 0
            }
          }
        }
      }
      JOINT rCollar
      {
        OFFSET -2.68224 19.2634 -4.8768
        CHANNELS 3 Zrotation Xrotation Yrotation
        JOINT rShldr
        {
          OFFSET -8.77824 -1.95073 1.46304
          CHANNELS 3 Zrotation Xrotation Yrotation
          JOINT rForeArm
          {
            OFFSET -28.1742 -1.7115 0.48768
            CHANNELS 3 Zrotation Xrotation Yrotation
            JOINT rHand
            {
              OFFSET -22.5879 0.773209 7.07136
              CHANNELS 3 Zrotation Xrotation Yrotation
              JOINT rThumb1
              {
                OFFSET -1.2192 -0.487915 3.41376
                CHANNELS 3 Zrotation Xrotation Yrotation
                JOINT rThumb2
                {
                  OFFSET -3.37035 -0.52449 3.41376
                  CHANNELS 3 Zrotation Xrotation Yrotation
                  End Site
                  {
                    OFFSET -1.78271 -1.18214 1.43049
                  }
                }
              }
              JOINT rIndex1
              {
                OFFSET -7.75947 0.938293 5.60832
                CHANNELS 3 Zrotation Xrotation Yrotation
                JOINT rIndex2
                {
                  OFFSET -2.54057 -0.884171 1.56538
                  CHANNELS 3 Zrotation Xrotation Yrotation
                  End Site
                  {
                    OFFSET -1.62519 -0.234802 1.16502
                  }
                }
              }
              JOINT rMid1
              {
                OFFSET -8.24714 1.18213 3.41376
                CHANNELS 3 Zrotation Xrotation Yrotation
                JOINT rMid2
                {
                  OFFSET -3.10165 -0.590103 1.0647
                  CHANNELS 3 Zrotation Xrotation Yrotation
                  End Site
                  {
                    OFFSET -2.48547 -0.328903 0.83742
                  }
                }
              }
              JOINT rRing1
              {
                OFFSET -8.82822 0.546677 1.51678
                CHANNELS 3 Zrotation Xrotation Yrotation
                JOINT rRing2
                {
                  OFFSET -2.60934 -0.819778 -0.0198488
                  CHANNELS 3 Zrotation Xrotation Yrotation
                  End Site
                  {
                    OFFSET -2.33842 -0.294052 0.168128
                  }
                }
              }
              JOINT rPinky1
              {
                OFFSET -8.27202 -0.0477905 -0.4584
                CHANNELS 3 Zrotation Xrotation Yrotation
                JOINT rPinky2
                {
                  OFFSET -1.82734 -0.647385 -0.700984
                  CHANNELS 3 Zrotation Xrotation Yrotation
                  End Site
                  {
                    OFFSET -1.69225 -0.51767 -0.607171
                  }
                }
              }
            }
          }
        }
      }
      JOINT lCollar
      {
        OFFSET 2.68224 19.2634 -4.8768
        CHANNELS 3 Zrotation Xrotation Yrotation
        JOINT lShldr
        {
          OFFSET 8.77824 -1.95073 1.46304
          CHANNELS 3 Zrotation Xrotation Yrotation
          JOINT lForeArm
          {
            OFFSET 28.1742 -1.7115 0.48768
            CHANNELS 3 Zrotation Xrotation Yrotation
            JOINT lHand
            {
              OFFSET 22.5879 0.773209 7.07136
              CHANNELS 3 Zrotation Xrotation Yrotation
              JOINT lThumb1
              {
                OFFSET 1.2192 -0.487915 3.41376
                CHANNELS 3 Zrotation Xrotation Yrotation
                JOINT lThumb2
                {
                  OFFSET 3.37035 -0.52449 3.41376
                  CHANNELS 3 Zrotation Xrotation Yrotation
                  End Site
                  {
                    OFFSET 1.78271 -1.18214 1.43049
                  }
                }
              }
              JOINT lIndex1
              {
                OFFSET 7.75947 0.938293 5.60832
                CHANNELS 3 Zrotation Xrotation Yrotation
                JOINT lIndex2
                {
                  OFFSET 2.54057 -0.884171 1.56538
                  CHANNELS 3 Zrotation Xrotation Yrotation
                  End Site
                  {
                    OFFSET 1.62519 -0.234802 1.16502
                  }
                }
              }
              JOINT lMid1
              {
                OFFSET 8.24714 1.18213 3.41376
                CHANNELS 3 Zrotation Xrotation Yrotation
                JOINT lMid2
                {
                  OFFSET 3.10165 -0.590103 1.0647
                  CHANNELS 3 Zrotation Xrotation Yrotation
                  End Site
                  {
                    OFFSET 2.48547 -0.328903 0.83742
                  }
                }
              }
              JOINT lRing1
              {
                OFFSET 8.82822 0.546677 1.51678
                CHANNELS 3 Zrotation Xrotation Yrotation
                JOINT lRing2
                {
                  OFFSET 2.60934 -0.819778 -0.0198488
                  CHANNELS 3 Zrotation Xrotation Yrotation
                  End Site
                  {
                    OFFSET 2.33842 -0.294052 0.168128
                  }
                }
              }
              JOINT lPinky1
              {
                OFFSET 8.27202 -0.0477905 -0.4584
                CHANNELS 3 Zrotation Xrotation Yrotation
                JOINT lPinky2
                {
                  OFFSET 1.82734 -0.647385 -0.700984
                  CHANNELS 3 Zrotation Xrotation Yrotation
                  End Site
                  {
                    OFFSET 1.69225 -0.51767 -0.607171
                  }
                }
              }
            }
          }
        }
      }
    }
  }
  JOINT rButtock
  {
    OFFSET -8.77824 4.35084 1.2192
    CHANNELS 3 Zrotation Xrotation Yrotation
    JOINT rThigh
    {
      OFFSET 0 -1.70687 -2.19456
      CHANNELS 3 Zrotation Xrotation Yrotation
      JOINT rShin
      {
        OFFSET 0 -36.8199 0.73152
        CHANNELS 3 Zrotation Xrotation Yrotation
        JOINT rFoot
        {
          OFFSET 0.73152 -45.1104 -5.12064
          CHANNELS 3 Zrotation Xrotation Yrotation
          End Site
          {
            OFFSET -1.1221 -3.69964 12.103
          }
        }
      }
    }
  }
  JOINT lButtock
  {
    OFFSET 8.77824 4.35084 1.2192
    CHANNELS 3 Zrotation Xrotation Yrotation
    JOINT lThigh
    {
      OFFSET 0 -1.70687 -2.19456
      CHANNELS 3 Zrotation Xrotation Yrotation
      JOINT lShin
      {
        OFFSET 0 -36.8199 0.73152
        CHANNELS 3 Zrotation Xrotation Yrotation
        JOINT lFoot
        {
          OFFSET -0.73152 -45.1104 -5.12064
          CHANNELS 3 Zrotation Xrotation Yrotation
          End Site
          {
            OFFSET 1.1221 -3.69964 12.103
          }
        }
      }
    }
  }
}
MOTION
Frames:	4
Frame Time:	0.03333
56.776199999999996 55.612700000000004 29.101300000000002 -162.453198 -32.03212 177.819273 15.44772 2.848839 -0.128024 0.48453 -1.012011 7.872324 0.518853 28.252891 -172.764506 -2.116109 38.880846 -167.652342 -29.494903 4.56762 -17.230326 0.951455 0.155724 18.589916 -71.544076 -74.611342 -92.921643 129.295519 28.774615 -139.407038 -85.696012 -33.027215 68.564029 -170.902367 -81.579629 169.45564 -167.061818 6.363197 91.492409 46.434134 -68.531503 46.939954 23.450574 -33.898016 -3.903352 32.578154 -41.228911 -20.029146 -172.289462 -49.941485 137.592362 -6.653791 -14.597853 5.120774 5.611206 -3.116896 1.860684 -152.240895 -40.673363 177.319513 -69.825867 -50.485401 -76.762182 -22.252089 -30.47142 -32.044449 22.521547 -87.761713 44.746261 106.334791 -20.395555 143.235477 -164.383827 -5.484174 159.34291 99.219665 84.358577 -92.406718 -18.055574 1.623939 -0.942573 86.196849 29.473183 -34.527241 46.334515 40.808914 -34.773927 7.747458 -28.046134 33.73811 3.425949 43.545272 -6.908955 6.557263 -65.843776 -6.577992 -18.717174 -0.006376 0.14228 -164.945661 -0.698942 176.730883 117.326961 -15.462595 104.938206 118.394062 24.510677 133.213061 1.218899 15.780147 -1.84 -8.702999 -12.105561 -2.008959 11.148148 40.328012 80.819578 -140.190981 -34.034057 153.157999 -18.183537 9.159589 -20.469291 105.379667 -36.577437 -66.615469 -80.35159 -47.462628 -167.832084 -156.10459 -18.02866 86.811413
57.5661 55.689299999999996 29.5574 -162.916854 -32.770236 178.222348 11.872796 0.142239 89.588737 1.374569 -3.632315 -82.006003 -7.064227 26.254094 -130.044912 21.014119 33.300742 142.776965 -29.445865 3.940296 -14.916152 -0.403633 -0.062465 17.594081 -71.05554 -75.228961 -92.384737 -35.230868 -0.188888 -39.689691 1.741052 -37.922668 -140.833464 -159.353264 4.238397 141.117987 -89.964484 41.924054 44.491962 -27.400704 -15.121022 43.026268 -166.766228 -45.477218 116.035072 -4.585085 -8.367732 -9.465649 9.83239 -2.408114 3.103 -37.749626 -85.282267 -71.41756 6.49048 -8.861746 0.592638 11.518387 0.099813 -1.496432 30.926449 56.450883 7.374558 -140.460445 -20.287176 -142.17434 155.121057 -4.757306 -160.577169 -129.273743 32.420446 148.015288 178.019184 -14.284371 -118.382073 -128.629699 -53.086306 -124.960955 19.08672 28.474668 -16.810811 22.573073 -12.536617 21.522181 -56.864048 -71.9944 -13.205215 125.721246 6.850093 -77.626324 141.681465 21.263917 -144.599399 -9.500299 -12.595963 35.96129 52.430755 72.039187 -90.588204 -118.568532 54.850982 95.426878 144.470846 21.655959 123.764823 122.486903 11.223219 110.398913 -38.864347 24.136266 -22.608894 38.977046 -5.570314 -91.207208 -33.888651 -23.742591 75.465273 -163.826116 -15.326175 -1.411951 3.24759 6.609126 -4.529929 83.147841 -56.246323 82.528964 22.549936 73.28624 8.481318 -78.607411 6.274386 4.519867
58.2415 55.5621 29.8818 -162.781947 -30.683279 176.874836 12.535505 3.090349 87.41905 0.174286 -3.370415 -81.99355 8.50908 23.22181 116.985359 -30.147674 15.324437 -90.842452 -26.581319 3.787203 -15.934995 4.094897 0.518088 14.415562 -3.0974 22.284429 -2.386547 -129.624346 70.24985 -156.423476 57.457315 -0.105947 165.266826 -71.632376 49.045134 51.237499 -97.454782 41.722959 51.643569 165.9473 -38.352307 63.365249 6.115481 -1.284217 3.220197 -22.961012 59.367579 25.699843 9.835492 0.508247 2.192711 -33.991883 71.97762 31.775576 -68.408279 70.790597 91.508451 9.057015 14.172941 0.997296 61.139423 73.983303 -13.630359 -160.9608 37.111124 -148.35573 46.829148 -84.265656 69.172723 -62.468453 15.666101 32.921967 -158.122667 -45.94507 -102.552471 -149.008037 -36.197343 -144.711942 18.479466 25.507397 -14.469413 93.236274 39.07389 -58.629264 -3.966368 -10.642827 3.546758 92.496597 46.8813 -43.635699 155.680388 -65.229733 -160.173397 150.666989 -61.719241 -135.300276 126.778779 1.844574 -175.606357 -46.358292 27.717797 -10.881649 47.430205 -25.262526 65.538675 116.534013 -11.199124 173.701894 19.327681 13.642355 5.160726 -28.018175 -5.965089 -86.396749 -35.518367 11.447808 103.270737 -58.351695 33.568855 -27.437521 -92.105688 50.398274 -37.481751 169.814602 -2.494007 103.614846 78.381672 30.796159 172.283676 -147.244299 81.045178 -140.309896
58.858999999999995 55.018 30.220799999999997 -162.61878 -29.34643 176.21571 17.531935 5.161556 -63.829889 0.490789 -1.696453 68.095545 -13.514206 21.205927 -78.892301 35.178505 15.456047 101.408454 -26.501145 4.089553 -17.242982 1.72361 0.210868 13.948858 -157.675812 -13.880318 170.09534 -39.772879 -26.415186 30.400597 10.960516 24.935942 -144.180206 -151.864748 16.920683 134.884515 -175.95115 -6.941354 93.158925 143.746907 -46.416619 110.195323 60.207669 -60.921728 14.516112 -172.502849 -58.332602 134.398969 3.116535 18.694529 4.82907 -166.120727 -49.990566 147.888215 -58.332005 70.878457 79.731616 9.901643 22.177831 6.68031 -73.134165 -41.361618 -83.330249 -12.543198 -39.230119 -20.695982 1.98956 18.393858 -2.062595 121.928325 -3.297016 -123.589987 163.65175 5.48426 160.408734 3.795782 47.039589 -10.453878 162.509853 -10.55498 -88.687868 50.25421 8.45286 -40.378659 92.306605 42.067823 -75.087067 10.875323 68.210045 6.440239 60.71534 -84.826794 99.152302 28.04323 52.946666 -64.022419 55.496587 -78.115127 89.360666 -101.846426 -57.497365 -98.40678 101.568745 -3.777491 102.44627 107.826991 48.738823 145.317216 -173.337725 62.71089 -2.445399 144.355646 64.710845 32.665844 -2.994044 37.560169 -38.077263 146.053758 -13.084858 2.2813 -171.161123 66.931007 -0.0 -148.983282 -8.849691 102.59972 73.176564 -5.568151 -101.421508 81.312757 2.866169 -22.161918
